<svg width="150" height="150" viewBox="0 0 150 150" fill="none" xmlns="http://www.w3.org/2000/svg">
<path d="M75.3762 101.787C71.2779 101.805 67.2337 100.812 63.5755 98.8894C59.9174 96.9667 56.7491 94.1694 54.3312 90.7267L37.4777 100.798C38.119 101.567 38.8783 102.22 39.7249 102.731L69.7152 120.714C71.468 121.646 73.408 122.131 75.3762 122.131C77.3444 122.131 79.2844 121.646 81.0372 120.714L111.028 102.731C111.874 102.22 112.633 101.567 113.275 100.798L96.4646 90.5469C94.0608 94.029 90.8942 96.8648 87.2266 98.8195C83.5593 100.774 79.4968 101.791 75.3762 101.787Z" fill="white"/>
<path d="M48.987 74.6402C49.0024 68.2465 51.4873 62.0823 55.9667 57.3259C60.446 52.5694 66.606 49.5544 73.2687 48.857V29.4766C72.2579 29.677 71.2854 30.0249 70.3855 30.5079L39.1213 47.6968C37.4219 48.7812 36.0089 50.2261 34.9931 51.9186C33.977 53.6109 33.3855 55.5045 33.2649 57.4513V91.8289C33.2788 92.8209 33.4455 93.8057 33.7603 94.7511L51.3298 85.0825C49.7934 81.7958 48.9955 78.2388 48.987 74.6402Z" fill="white"/>
<path d="M111.936 47.6848L82.3172 30.5073C81.4649 30.0244 80.5435 29.6768 79.5858 29.4766V48.8012C83.6095 49.26 87.4701 50.6628 90.8566 52.8973C94.243 55.1316 97.0607 58.1348 99.0828 61.6651C101.105 65.1954 102.275 69.1542 102.498 73.2227C102.722 77.2912 101.993 81.3555 100.37 85.0888L117.015 94.7511C117.313 93.8061 117.471 92.8222 117.484 91.831V57.476C117.376 55.523 116.819 53.622 115.856 51.9228C114.893 50.2236 113.551 48.7728 111.936 47.6848Z" fill="white"/>
<path d="M133.51 30.4708L84.6148 2.19049C81.7474 0.750024 78.5833 0 75.375 0C72.1667 0 69.003 0.750024 66.1354 2.19049L17.2396 30.4708C14.5558 32.2219 12.3213 34.5804 10.7161 37.3558C9.11106 40.1313 8.18065 43.2457 8 46.4475V103.008C8.17728 106.217 9.10601 109.339 10.711 112.122C12.316 114.905 14.5524 117.271 17.2396 119.029L66.1354 147.31C69.003 148.75 72.1667 149.5 75.375 149.5C78.5833 149.5 81.7474 148.75 84.6148 147.31L133.51 119.029C136.198 117.271 138.434 114.905 140.039 112.122C141.644 109.339 142.573 106.217 142.75 103.008V46.4475C142.569 43.2457 141.639 40.1313 140.034 37.3558C138.429 34.5804 136.194 32.2219 133.51 30.4708ZM127.232 96.5022C127.089 98.9673 126.37 101.364 125.134 103.501C123.898 105.638 122.179 107.454 120.115 108.806L82.4483 130.58C80.2481 131.693 77.8178 132.272 75.3529 132.272C72.888 132.272 70.4575 131.693 68.2575 130.58L30.6353 108.806C28.5709 107.454 26.8517 105.638 25.6158 103.501C24.3797 101.364 23.6611 98.9673 23.5175 96.5022V52.9977C23.6611 50.5327 24.3797 48.1358 25.6158 45.9993C26.8517 43.8625 28.5709 42.0455 30.6353 40.6941L68.213 18.9197C70.4133 17.8073 72.8436 17.2277 75.3087 17.2277C77.7735 17.2277 80.2041 17.8073 82.4043 18.9197L120.071 40.6941C122.143 42.0407 123.871 43.8555 125.115 45.9925C126.359 48.1293 127.084 50.5289 127.232 52.9977V96.5022Z" fill="white"/>
<path d="M56.425 74.7475C56.425 78.2873 57.5363 81.7477 59.6184 84.6909C61.7005 87.6344 64.6601 89.9283 68.1228 91.283C71.5852 92.6376 75.3953 92.992 79.0712 92.3015C82.7469 91.6109 86.1233 89.9064 88.7732 87.4032C91.4234 84.9002 93.2282 81.711 93.9594 78.2393C94.6905 74.7673 94.3153 71.1688 92.881 67.8983C91.4468 64.6278 89.0183 61.8326 85.902 59.8659C82.7859 57.8993 79.122 56.8496 75.3742 56.8496C70.3487 56.8496 65.5288 58.7352 61.9752 62.0918C58.4214 65.4484 56.425 70.0008 56.425 74.7475Z" fill="white"/>
</svg>
